<?xml version="1.0" encoding="UTF-8"?>
<svg width="177px" height="150px" viewBox="0 0 177 150" version="1.1" xmlns="http://www.w3.org/2000/svg" xmlns:xlink="http://www.w3.org/1999/xlink">
  <title>Trousers Logo</title>
  <g id="Trousers" stroke="none" stroke-width="1" fill="none" fill-rule="evenodd">
    <g id="trousers" transform="translate(10.000000, 10.000000)" fill="#000000">
      <path d="M0,0 L50,0 L50,100 L0,100 L0,0 Z M30,80 C29,81.65 27,82.23 25.5,81.27 C12.88,73.59 -2.94,71.86 -21.56,76.11 C-23.36,76.52 -25.15,75.4 -25.56,73.6 C-25.94,71.8 -24.82,70 -23.03,69.59 C-2.65,63.94 14.9,65.94 29,74.55 C30.5,75.52 31,77.57 30.03,79.14 L30.03,79.14 Z M36.58,64.97 C35.37,66.94 32.8,67.57 30.84,66.37 C16.46,57.53 -5.46,54.97 -22.47,60.13 C-24.67,60.8 -26.96,59.55 -27.73,57.35 C-28.5,55.15 -27.14,52.8 -24.87,52.13 C-5.48,46.24 18.66,47.28 37.66,58.13 C39.62,59.34 40.23,61.9 39.03,63.97 C37.82,66.03 34.74,66.82 32.37,65.42 C32.36,65.42 32.34,65.41 32.33,65.41 L32.33,65.41 Z M39.03,49.75 C21.78,39.51 -7.68,38.57 -24.15,43.56 C-26.35,44.26 -29.13,42.77 -29.9,40.15 C-30.67,37.53 -29.31,34.73 -27.09,34.06 C-7.19,28.23 24.92,29.34 44.82,41.12 C47.2,42.53 48,45.6 46.59,48.03 C45.18,50.46 42.1,51.25 39.73,49.84 C39.72,49.84 39.71,49.84 39.7,49.83 L39.7,49.83 Z" id="Shape"></path>
      <rect x="60" y="30" width="20" height="40" id="Pocket" />
    </g>
  </g>
</svg>
